<svg width="384" height="164" viewBox="0 0 384 164" fill="none" xmlns="http://www.w3.org/2000/svg">
<path d="M114.238 101.443C110.885 98.4446 109.209 94.0133 109.209 88.1602C109.209 82.307 110.918 77.8758 114.341 74.8778C117.758 71.8799 122.435 70.3781 128.364 70.3781C130.827 70.3781 133.002 70.5551 134.896 70.9205C136.789 71.2803 138.601 71.8913 140.332 72.7593V82.2556C137.641 80.9137 134.587 80.2399 131.169 80.2399C128.158 80.2399 125.934 80.8395 124.502 82.0386C123.064 83.2378 122.348 85.2764 122.348 88.1602C122.348 90.9468 123.053 92.9626 124.469 94.2075C125.88 95.458 128.115 96.0805 131.174 96.0805C134.413 96.0805 137.489 95.2867 140.408 93.7049V103.641C137.169 105.177 133.133 105.942 128.299 105.942C122.272 105.942 117.59 104.44 114.238 101.443Z" fill="white"/>
<path d="M143.326 88.1539C143.326 82.3465 144.9 77.9324 148.046 74.9059C151.193 71.8794 155.934 70.3718 162.276 70.3718C168.661 70.3718 173.435 71.8851 176.608 74.9059C179.777 77.9267 181.361 82.3465 181.361 88.1539C181.361 100.009 174.997 105.936 162.276 105.936C149.641 105.942 143.326 100.014 143.326 88.1539ZM166.827 94.2069C167.76 92.9564 168.227 90.9406 168.227 88.1596C168.227 85.4244 167.76 83.42 166.827 82.1466C165.894 80.8732 164.375 80.2394 162.276 80.2394C160.225 80.2394 158.739 80.8789 157.827 82.1466C156.916 83.42 156.46 85.4244 156.46 88.1596C156.46 90.9463 156.916 92.9621 157.827 94.2069C158.739 95.4575 160.22 96.0799 162.276 96.0799C164.375 96.0799 165.889 95.4518 166.827 94.2069Z" fill="white"/>
<path d="M184.354 71.0913H196.392L196.734 73.6838C198.057 72.7245 199.744 71.9308 201.795 71.3083C203.846 70.6859 205.967 70.3718 208.159 70.3718C212.216 70.3718 215.178 71.4282 217.05 73.5411C218.922 75.6539 219.855 78.9146 219.855 83.3344V105.222H206.998V84.6992C206.998 83.1631 206.667 82.061 206.005 81.3871C205.343 80.7133 204.236 80.3821 202.685 80.3821C201.73 80.3821 200.748 80.6105 199.744 81.0674C198.741 81.5242 197.9 82.1124 197.211 82.8319V105.222H184.354V71.0913Z" fill="white"/>
<path d="M219.892 71.0917H233.297L239.454 91.1065L245.611 71.0917H259.016L246.224 105.223H232.678L219.892 71.0917Z" fill="white"/>
<path d="M263.064 102.287C259.202 99.2378 257.395 93.9443 257.395 88.2282C257.395 82.6606 258.833 78.0751 262.115 74.9059C265.397 71.7366 270.399 70.3718 276.713 70.3718C282.523 70.3718 287.091 71.788 290.427 74.6203C293.758 77.4527 295.429 81.3186 295.429 86.2124V92.1912H270.979C271.587 93.9671 272.357 95.2519 274.25 96.0457C276.144 96.8394 278.786 97.2334 282.165 97.2334C284.183 97.2334 286.245 97.0678 288.339 96.7309C289.077 96.611 290.292 96.4226 290.932 96.2798V104.577C287.737 105.491 283.478 105.947 278.677 105.947C272.216 105.942 266.927 105.336 263.064 102.287ZM281.921 84.8476C281.921 83.1574 280.071 79.5198 276.355 79.5198C273.003 79.5198 270.789 83.1003 270.789 84.8476H281.921Z" fill="white"/>
<path d="M305.524 87.8688L293.486 71.0917H307.439L332.063 105.223H317.974L312.501 97.5878L307.027 105.223H293.003L305.524 87.8688Z" fill="white"/>
<path d="M317.665 71.0917H331.553L320.893 86.0357L313.84 76.4594L317.665 71.0917Z" fill="white"/>
<path d="M81.5978 102.433C88.9978 101.617 95.974 97.6987 99.8152 91.1591C97.9963 107.334 80.1969 117.557 65.6682 111.28C64.3294 110.704 63.1771 109.744 62.3862 108.51C59.1212 103.416 58.048 96.9333 59.5901 91.0505C63.9961 98.6068 72.9552 103.239 81.5978 102.433Z" fill="white"/>
<path d="M59.32 86.3042C56.3205 93.1922 56.1906 101.257 59.8679 107.893C46.9265 98.2183 47.0677 77.5143 59.7098 67.9362C60.8791 67.051 62.2687 66.5255 63.7261 66.4455C69.7195 66.1314 75.8089 68.4331 80.0794 72.7224C71.4028 72.8081 62.9522 78.331 59.32 86.3042Z" fill="white"/>
<path d="M84.264 74.8419C79.8861 68.7763 73.0341 64.6469 65.5269 64.5213C80.0386 57.976 97.8889 68.5878 99.8321 84.2772C100.013 85.7336 99.7756 87.2186 99.126 88.5322C96.4145 94.0037 91.3871 98.2473 85.5123 99.818C89.8167 91.8848 89.2857 82.1925 84.264 74.8419Z" fill="white"/>
</svg>