<svg version="1.1" id="Layer_1" xmlns:x="ns_extend;" xmlns:i="ns_ai;" xmlns:graph="ns_graphs;" xmlns="http://www.w3.org/2000/svg" xmlns:xlink="http://www.w3.org/1999/xlink" x="0px" y="0px" viewBox="0 0 227.4 64" style="enable-background:new 0 0 227.4 64;" xml:space="preserve">
 <metadata>
  <sfw xmlns="ns_sfw;">
   <slices>
   </slices>
   <sliceSourceBounds bottomLeftOrigin="true" height="64" width="227.4" x="-56.8" y="-16">
   </sliceSourceBounds>
  </sfw>
 </metadata>
 <g>
  <path d="M29.6,20.7c0.5-0.8,1.1-0.8,1.5-0.8s1.2,0.1,1.7,0.8c4,5.5,10.7,16.6,15.6,24.7c3.2,5.3,5.7,9.4,6.2,9.9
		c1.9,1.9,4.5,0.7,6-1.5c1.5-2.2,1.9-3.7,1.9-5.3C62.5,47.3,41,7.3,38.8,4c-2.1-3.2-2.8-4-6.3-4h-2.7c-3.6,0-4.1,0.8-6.2,4
		C21.5,7.3,0,47.3,0,48.4c0,1.6,0.4,3.2,1.9,5.3c1.5,2.2,4.1,3.4,6,1.5c0.5-0.5,3-4.6,6.2-9.9C19,37.2,25.6,26.2,29.6,20.7z">
  </path>
  <path d="M77.4,3.5v49.1h29.9v-10H87.8V32.3h17.4v-10H87.8v-8.8h19.6v-10H77.4z">
  </path>
  <path d="M147.3,52.6l-12.4-17.8l11.6-16.6h-11.7l-5.7,8.1l-5.6-8.1h-11.9l11.6,16.7l-12.3,17.7h11.7l6.5-9.3l6.5,9.3H147.3z">
  </path>
  <path d="M172.2,17.5c-4.7,0-8.4,2-10.8,5.5v-4.8h-9.8V64h9.8V47.8c2.4,3.6,6.1,5.5,10.8,5.5c8.9,0,15.9-8.1,15.9-18
		S181.1,17.5,172.2,17.5z M170,43.9c-4.8,0-8.6-3.6-8.6-8.5c0-4.8,3.8-8.5,8.6-8.5c4.7,0,8.6,3.8,8.6,8.5
		C178.6,40.2,174.7,43.9,170,43.9z">
  </path>
  <path d="M209.6,17.5c-10.1,0-17.8,7.7-17.8,18c0,10.2,7.7,17.9,17.8,17.9c10,0,17.8-7.6,17.8-17.9
		C227.4,25.2,219.6,17.5,209.6,17.5z M209.6,27c4.6,0,8.2,3.6,8.2,8.5c0,4.8-3.6,8.4-8.2,8.4c-4.7,0-8.2-3.6-8.2-8.4
		C201.4,30.5,204.9,27,209.6,27z">
  </path>
 </g>
</svg>