<svg width="793" height="182" viewBox="0 0 793 182" fill="none" xmlns="http://www.w3.org/2000/svg">
<path d="M31.3808 0H0.895508V178.819H111.488V152.702H31.3808V0Z" fill="#070707"/>
<path d="M161.81 81.4058H132.271V178.81H161.81V81.4058Z" fill="#070707"/>
<path d="M248.767 175.282L211.195 51.9912H181.656L221.121 178.814H276.414L315.878 51.9912H286.101L248.767 175.282Z" fill="#070707"/>
<path d="M389.159 49.1802C350.872 49.1802 326.534 76.4766 326.534 115.296C326.534 153.885 350.164 181.649 389.159 181.649C418.929 181.649 440.435 168.472 448.468 141.413H418.432C413.945 153.648 405.667 160.955 389.362 160.955C371.403 160.955 358.884 148.483 356.522 124.02H450.571C451.021 120.901 451.255 117.756 451.272 114.605C451.279 75.0598 426.703 49.1802 389.159 49.1802ZM356.753 103.529C359.83 80.7131 371.88 69.888 389.159 69.888C407.349 69.888 419.637 83.2955 421.06 103.529H356.753Z" fill="#070707"/>
<path d="M624.006 0H585.726L511.528 81.8822V0H481.042V178.819H511.528V88.4708L593.289 178.819H632.277L546.738 84.7019L624.006 0Z" fill="#070707"/>
<path d="M675.034 51.9912H645.495V149.396H675.034V51.9912Z" fill="#070707"/>
<path d="M132.274 51.9912H102.735V81.4024H132.274V51.9912Z" fill="#070707"/>
<path d="M704.579 149.406H675.041V178.818H704.579V149.406Z" fill="#070707"/>
<path d="M792.842 149.406H763.303V178.818H792.842V149.406Z" fill="#070707"/>
<path d="M792.839 81.4076V51.9965H763.3V0H733.761V51.9965H704.222V81.4076H733.761V149.408H763.3V81.4076H792.839Z" fill="#070707"/>
</svg>
