<svg width="107" height="24" viewBox="0 0 107 24" fill="none" xmlns="http://www.w3.org/2000/svg">
<path d="M10.3478 13.8381C8.61395 13.2837 7.04295 13.0091 7.04295 11.9003C7.04295 10.6278 8.33548 10.2687 9.43887 10.3215C10.5422 10.3479 11.7822 10.9023 12.3287 11.9531L14.341 10.2634C13.4321 8.6847 11.2568 7.77124 8.97124 7.77124C6.0499 7.79764 3.73805 9.23912 3.73805 11.9214C3.73805 14.7727 6.16024 15.628 8.25141 16.3197C9.90649 16.8477 11.3882 17.2068 11.3882 18.3103C11.3882 19.4139 10.3426 19.9155 8.77158 19.8627C7.33718 19.7782 5.88177 19.0601 5.35635 17.8721L3.29144 19.6726C4.28449 21.3041 6.51227 22.413 9.15514 22.413C12.2394 22.4394 14.7719 21.0824 14.7719 18.3156C14.7719 15.4115 12.4285 14.5245 10.3373 13.8328L10.3478 13.8381Z" fill="white"/>
<path d="M23.9252 19.2916C21.5293 19.318 19.7691 17.6337 19.7691 15.0834C19.7691 12.5331 21.5293 10.8752 23.9252 10.9068C25.3018 10.9068 26.4577 11.4613 27.2038 12.4592L29.4631 10.5795C28.139 8.83705 26.2423 7.8127 23.736 7.7863C19.3277 7.7599 16.4379 10.8012 16.4379 15.0359C16.4379 19.2705 19.3277 22.4227 23.736 22.4227C26.2685 22.4227 28.1968 21.2611 29.5472 19.4606L27.2353 17.6601C26.5208 18.7108 25.307 19.2916 23.9304 19.2916H23.9252Z" fill="white"/>
<path d="M43.0075 11.1283C42.0985 9.19055 40.4487 7.78076 37.8584 7.78076C33.8915 7.78076 31.196 10.7957 31.196 15.0303C31.196 19.265 33.8967 22.4172 37.8584 22.4172C40.4487 22.4172 42.0985 20.9757 43.0075 18.9851V22.0846H46.449V8.05532H43.0075V11.1283ZM38.7936 19.2914C36.424 19.2914 34.6638 17.6334 34.6638 15.0831C34.6638 12.5328 36.424 10.9066 38.7936 10.9066C41.1633 10.9066 42.9812 12.5117 42.9812 15.0831C42.9812 17.6545 41.1633 19.2914 38.7936 19.2914Z" fill="white"/>
<path d="M52.785 1.57715H49.3435V22.1115H52.785V1.57715Z" fill="white"/>
<path d="M62.3438 7.78076C57.799 7.78076 55.072 10.7957 55.072 15.0303C55.072 19.265 57.9934 22.4172 62.6749 22.4172C65.1233 22.4172 67.3301 21.5301 68.7067 19.9567L66.2004 18.1297C65.3755 18.9851 64.1093 19.5131 62.6749 19.4867C60.3893 19.4867 58.792 18.0453 58.5713 15.9438H69.5579C69.8626 11.2128 67.1882 7.78076 62.3438 7.78076ZM58.5713 14.1433C58.8183 12.0418 60.2264 10.6848 62.512 10.6848C64.7976 10.6848 66.2845 12.0154 66.5314 14.0905L58.5713 14.1433Z" fill="white"/>
<path d="M85.6665 8.05583H81.6996L76.1354 13.1194V1.57715H72.6939V22.1115H76.1354V15.638L82.141 22.1115H86.2182L78.9727 14.3656L85.6665 8.05583Z" fill="white"/>
<path d="M88.5563 22.1107H91.9978V8.02344H88.5563V22.1107Z" fill="white"/>
<path d="M99.9895 16.8257V10.875H102.801V8.05017H99.9895V4.23267L96.548 5.06163V8.05017H94.4253V10.875H96.548V17.322C96.548 21.752 98.8598 22.4121 103.132 22.0794V19.3971C100.82 19.5608 99.9947 18.98 99.9947 16.8257H99.9895Z" fill="white"/>
<path d="M90.2805 5.80166C91.4414 5.80166 92.3824 4.85597 92.3824 3.6894C92.3824 2.52284 91.4414 1.57715 90.2805 1.57715C89.1197 1.57715 88.1786 2.52284 88.1786 3.6894C88.1786 4.85597 89.1197 5.80166 90.2805 5.80166Z" fill="white"/>
</svg>
